<svg width="349" height="348" viewBox="0 0 349 348" fill="none" xmlns="http://www.w3.org/2000/svg">
<path fill-rule="evenodd" clip-rule="evenodd" d="M263.663 17.8056C281.619 39.4432 273.497 75.8419 245.518 99.0597C217.54 122.278 180.268 123.55 162.312 101.912C144.356 80.2743 152.459 43.8918 180.456 20.6578C208.454 -2.53702 245.707 -3.83203 263.663 17.8056ZM182.349 169.439C220.361 215.403 199.45 242.396 187.661 317.52C171.729 363.315 130.812 354.979 103.807 304.895C96.0149 278.477 87.6004 262.331 75.8081 248.912C55.3576 225.69 37.1303 230.671 15.0824 202.206C-2.15895 180.442 -2.59082 164.552 7.37558 153.133C17.9458 140.98 30.3151 140.16 46.0851 138.58C107.428 132.375 161.225 133.949 182.349 169.439ZM125.677 4.46771C106.851 -7.23525 81.2336 5.31598 68.4601 32.4749C55.6866 59.6339 60.5835 91.1369 79.4099 102.84C98.2363 114.543 123.853 101.992 136.627 74.8326C149.4 47.6736 144.503 16.1707 125.677 4.46771ZM326.975 247.039C335.006 267.701 317.947 290.564 288.898 298.111C259.85 305.658 229.771 295.014 221.759 274.376C213.728 253.714 230.787 230.851 259.835 223.304C288.884 215.757 318.944 226.378 326.975 247.039ZM339.434 107.65C357.39 129.288 349.267 165.686 321.289 188.904C293.31 212.122 256.038 213.394 238.082 191.756C220.126 170.119 228.229 133.736 256.227 110.502C284.225 87.3075 321.478 86.0125 339.434 107.65Z" fill="#FBC4AB"/>
</svg>
