<svg width="359" height="311" viewBox="0 0 359 311" fill="none" xmlns="http://www.w3.org/2000/svg">
<path fill-rule="evenodd" clip-rule="evenodd" d="M120.681 1.69511C148.799 1.69511 171.622 31.1898 171.622 67.5471C171.622 103.905 148.799 133.399 120.681 133.399C92.5635 133.399 69.7403 103.93 69.7403 67.5471C69.7703 31.1898 92.5635 1.69511 120.681 1.69511ZM185.442 161.102C245.087 161.203 252.505 194.533 302.788 251.58C327.855 293.084 295.31 319.248 239.523 308.046C214.217 297.171 196.419 293.336 178.562 293.841C147.632 294.749 139.825 311.957 103.841 310.746C76.0818 310.115 63.5784 300.3 61.1555 285.338C58.5531 269.443 65.8218 259.401 74.6759 246.256C109.075 195.088 144.641 154.694 185.442 161.102ZM22.2992 99.363C1.27078 106.377 -5.4296 134.106 7.3131 161.279C20.0558 188.453 47.4257 204.802 68.4541 197.788C89.4825 190.774 96.1829 163.045 83.4402 135.872C70.6975 108.698 43.3277 92.3489 22.2992 99.363ZM337.516 99.363C358.545 106.377 365.245 134.106 352.503 161.279C339.76 188.453 312.36 204.802 291.362 197.788C270.333 190.774 263.633 163.045 276.375 135.872C289.118 108.698 316.488 92.3489 337.516 99.363ZM238.207 0.761574C266.325 0.761574 289.148 30.2562 289.148 66.6136C289.148 102.971 266.325 132.466 238.207 132.466C210.089 132.466 187.266 102.996 187.266 66.6136C187.296 30.2562 210.089 0.761574 238.207 0.761574Z" fill="#F8AD9D" fill-opacity="0.866667"/>
</svg>
