<svg width="110" height="115" viewBox="0 0 110 115" fill="none" xmlns="http://www.w3.org/2000/svg">
<path fill-rule="evenodd" clip-rule="evenodd" d="M96.1626 61.3852C96.1626 62.3579 95.3807 63.1474 94.4173 63.1474H84.5269V73.1329C84.5269 74.1056 83.7449 74.895 82.7815 74.895C81.8181 74.895 81.0361 74.1056 81.0361 73.1329V63.1474H71.1457C70.1823 63.1474 69.4004 62.3579 69.4004 61.3852C69.4004 60.4125 70.1823 59.6231 71.1457 59.6231H81.0361V49.6376C81.0361 48.6649 81.8181 47.8754 82.7815 47.8754C83.7449 47.8754 84.5269 48.6649 84.5269 49.6376V59.6231H94.4173C95.3807 59.6231 96.1626 60.4125 96.1626 61.3852ZM100.261 77.0609L66.2679 111.477L32.2775 77.0609C24.2162 67.9001 24.6142 53.9627 33.192 45.2976C37.5229 40.9275 43.2756 38.5239 49.396 38.5239C54.2621 38.5239 59.4144 40.1122 63.6196 43.4156L48.8561 58.7158C48.2068 59.3877 48.2138 60.4615 48.8724 61.1264L48.8771 61.1334C49.2075 61.4647 49.6427 61.6315 50.0755 61.6315C50.5131 61.6315 50.9459 61.4647 51.2787 61.1311L67.8085 44.4424C72.0276 40.6267 77.4708 38.5239 83.1398 38.5239C89.2602 38.5239 95.0152 40.9275 99.3437 45.2976C107.924 53.9603 108.324 67.9001 100.261 77.0609ZM101.813 42.8075C96.8257 37.7701 90.1957 35 83.1397 35C76.9635 35 71.0129 37.1662 66.2725 41.1275C66.1213 40.9466 65.9514 40.7798 65.7629 40.6318C61.1318 36.9994 55.3209 35 49.396 35C42.3424 35 35.7123 37.7701 30.7252 42.8075C20.8488 52.7812 20.3834 68.8544 29.6687 79.4038C29.7129 79.4531 29.7595 79.5024 29.806 79.5494L63.7964 113.968C64.4527 114.63 65.3417 115.002 66.2679 115.002C67.1964 115.002 68.0877 114.63 68.7416 113.968L102.732 79.5471C102.781 79.5024 102.825 79.4507 102.872 79.4014C112.155 68.8544 111.689 52.7789 101.813 42.8075Z" fill="#1D2D44"/>
</svg>
