<svg id="visual" viewBox="0 0 900 200" width="900" height="200" xmlns="http://www.w3.org/2000/svg" xmlns:xlink="http://www.w3.org/1999/xlink" version="1.1"><rect x="0" y="0" width="900" height="200" fill="#F8AD9D"></rect><path d="M0 82L21.5 74.5C43 67 86 52 128.8 50C171.7 48 214.3 59 257.2 58.8C300 58.7 343 47.3 385.8 42.7C428.7 38 471.3 40 514.2 41.2C557 42.3 600 42.7 642.8 46.2C685.7 49.7 728.3 56.3 771.2 64.5C814 72.7 857 82.3 878.5 87.2L900 92L900 201L878.5 201C857 201 814 201 771.2 201C728.3 201 685.7 201 642.8 201C600 201 557 201 514.2 201C471.3 201 428.7 201 385.8 201C343 201 300 201 257.2 201C214.3 201 171.7 201 128.8 201C86 201 43 201 21.5 201L0 201Z" fill="#f8ad9d"></path><path d="M0 106L21.5 104.2C43 102.3 86 98.7 128.8 100.5C171.7 102.3 214.3 109.7 257.2 108.5C300 107.3 343 97.7 385.8 97C428.7 96.3 471.3 104.7 514.2 109C557 113.3 600 113.7 642.8 109C685.7 104.3 728.3 94.7 771.2 89C814 83.3 857 81.7 878.5 80.8L900 80L900 201L878.5 201C857 201 814 201 771.2 201C728.3 201 685.7 201 642.8 201C600 201 557 201 514.2 201C471.3 201 428.7 201 385.8 201C343 201 300 201 257.2 201C214.3 201 171.7 201 128.8 201C86 201 43 201 21.5 201L0 201Z" fill="#f7a698"></path><path d="M0 128L21.5 127.7C43 127.3 86 126.7 128.8 124.5C171.7 122.3 214.3 118.7 257.2 117.5C300 116.3 343 117.7 385.8 123.2C428.7 128.7 471.3 138.3 514.2 136.3C557 134.3 600 120.7 642.8 116.2C685.7 111.7 728.3 116.3 771.2 122.3C814 128.3 857 135.7 878.5 139.3L900 143L900 201L878.5 201C857 201 814 201 771.2 201C728.3 201 685.7 201 642.8 201C600 201 557 201 514.2 201C471.3 201 428.7 201 385.8 201C343 201 300 201 257.2 201C214.3 201 171.7 201 128.8 201C86 201 43 201 21.5 201L0 201Z" fill="#f59e93"></path><path d="M0 143L21.5 146C43 149 86 155 128.8 160C171.7 165 214.3 169 257.2 170C300 171 343 169 385.8 163.3C428.7 157.7 471.3 148.3 514.2 147.3C557 146.3 600 153.7 642.8 154.7C685.7 155.7 728.3 150.3 771.2 148.3C814 146.3 857 147.7 878.5 148.3L900 149L900 201L878.5 201C857 201 814 201 771.2 201C728.3 201 685.7 201 642.8 201C600 201 557 201 514.2 201C471.3 201 428.7 201 385.8 201C343 201 300 201 257.2 201C214.3 201 171.7 201 128.8 201C86 201 43 201 21.5 201L0 201Z" fill="#f4978e"></path></svg>