<svg id="visual" viewBox="0 0 900 200" width="900" height="200" xmlns="http://www.w3.org/2000/svg" xmlns:xlink="http://www.w3.org/1999/xlink" version="1.1"><rect x="0" y="0" width="900" height="200" fill="#FFCDB2"></rect><path d="M0 56L21.5 52.8C43 49.7 86 43.3 128.8 46.3C171.7 49.3 214.3 61.7 257.2 68.2C300 74.7 343 75.3 385.8 71.5C428.7 67.7 471.3 59.3 514.2 55C557 50.7 600 50.3 642.8 53.3C685.7 56.3 728.3 62.7 771.2 67.3C814 72 857 75 878.5 76.5L900 78L900 201L878.5 201C857 201 814 201 771.2 201C728.3 201 685.7 201 642.8 201C600 201 557 201 514.2 201C471.3 201 428.7 201 385.8 201C343 201 300 201 257.2 201C214.3 201 171.7 201 128.8 201C86 201 43 201 21.5 201L0 201Z" fill="#fbc4ab"></path><path d="M0 83L21.5 84.7C43 86.3 86 89.7 128.8 92.7C171.7 95.7 214.3 98.3 257.2 96.7C300 95 343 89 385.8 92.8C428.7 96.7 471.3 110.3 514.2 116.3C557 122.3 600 120.7 642.8 120C685.7 119.3 728.3 119.7 771.2 114.7C814 109.7 857 99.3 878.5 94.2L900 89L900 201L878.5 201C857 201 814 201 771.2 201C728.3 201 685.7 201 642.8 201C600 201 557 201 514.2 201C471.3 201 428.7 201 385.8 201C343 201 300 201 257.2 201C214.3 201 171.7 201 128.8 201C86 201 43 201 21.5 201L0 201Z" fill="#fab9a3"></path><path d="M0 156L21.5 153C43 150 86 144 128.8 143.3C171.7 142.7 214.3 147.3 257.2 152.2C300 157 343 162 385.8 163.8C428.7 165.7 471.3 164.3 514.2 161.8C557 159.3 600 155.7 642.8 156.5C685.7 157.3 728.3 162.7 771.2 164.8C814 167 857 166 878.5 165.5L900 165L900 201L878.5 201C857 201 814 201 771.2 201C728.3 201 685.7 201 642.8 201C600 201 557 201 514.2 201C471.3 201 428.7 201 385.8 201C343 201 300 201 257.2 201C214.3 201 171.7 201 128.8 201C86 201 43 201 21.5 201L0 201Z" fill="#f8ad9d"></path></svg>